<svg width="1024" height="1024" viewBox="0 0 1024 1024" fill="none" xmlns="http://www.w3.org/2000/svg">
<g clip-path="url(#clip0_68_1227)">
<rect width="1024" height="1024" fill="#74E3FC"/>
<path d="M-13.0005 153.59H239.007C234.097 167.092 229.565 181.949 225.116 195.682L131.241 485.596C117.692 527.424 104.636 570.013 89.6739 611.348C83.7713 627.655 77.1303 643.983 70.7914 660.128C68.4119 665.833 56.178 663.532 50.7301 664.892C29.8244 670.112 7.60608 673.888 -13.0005 680.077V153.59Z" fill="#74E3FC"/>
<path d="M871.773 153.59H1037V854.758H582.203C583.551 845.661 586.971 836.995 586.802 827.374C586.474 808.805 573.492 794.622 561.172 782.438C578.065 748.268 590.626 711.617 605.992 676.785C606.735 675.095 609.637 673.841 611.283 673.014C627.412 676.019 641.081 686.041 657.041 689.411C662.973 690.664 670.899 691.132 676.282 687.742C684.224 682.728 700.928 639.955 705.05 629.174C707.885 621.751 710.361 611.891 714.878 605.355C716.032 603.683 717.872 602.601 719.544 601.503C755.191 611.221 791.613 622.017 827.948 628.338C859.971 633.91 886 623.887 911.994 605.448C941.197 584.73 958.234 554.206 963.592 518.966C970.308 474.827 957.255 432.535 934.947 394.728C925.934 379.444 920.192 369.141 908.733 354.688C892.691 334.449 875.347 315.982 859.007 296.009C851.301 286.586 845.826 277.861 838.812 268.28C850.091 230.201 862.211 192.158 871.773 153.59Z" fill="#74E3FC"/>
<path d="M247.588 8.04688H1052.28L1010.38 156.098C1010.38 156.098 1130.8 257.307 1165.67 346.795C1199.74 434.242 1196.01 493.812 1181.76 586.575C1149.2 798.571 826.232 654.693 826.232 654.693C826.232 654.693 796.5 746 789.5 754.5C782.5 763 776.576 782.213 755.5 780.5C721.525 777.739 673 752 673 752C673 752 598 898 600.5 911.5C603 925 693.353 1016 693.353 1016H247.588L3.78596 676.693L122.871 492.433L247.588 8.04688Z" fill="#232021"/>
<path d="M-93.5742 733.238L135.248 0H157.673H1030.95C1021.38 40.3144 1009.36 80.0065 994.966 118.854C990.494 131.257 985.628 151.601 974.41 158.411C962.88 165.415 948.49 165.115 935.571 163.224C831.194 148.974 729.617 110.859 632.401 71.601L545.407 36.2624C524.985 28.0592 499.258 16.1572 477.879 13.1319C440.309 7.44665 401.933 14.9788 369.281 34.4467C314.733 67.7121 284.159 133.467 263.29 191.325C258.077 205.779 250.473 224.715 246.951 239.475C235.291 288.336 250.081 342.414 275.878 384.391C287.557 403.397 304.737 424.715 322.413 438.698C327.803 442.962 342.733 450.404 349.224 453.766C367.209 463.024 385.371 471.929 403.702 480.476C516.813 533.934 635.477 575.468 752.283 619.874C767.683 625.731 783.574 631.396 798.729 637.834C799.167 646.069 798.67 653.54 796.664 661.595C793.781 673.21 768.225 739.902 761.747 747.374C759.095 750.426 754.623 752.889 750.515 753.128C740.746 753.686 698.541 737.316 687.249 733.238C637.022 714.779 587.396 694.686 538.469 672.994C495.532 654.221 452.577 632.975 408.877 616.571C338.087 589.998 264.908 561.212 188.412 559.465C157.298 558.752 132.491 561.51 109.849 586.352C82.5262 616.707 65.3422 666.111 65.6193 706.734C65.8808 745.201 82.1503 773.366 109.517 799.03C159.958 846.324 217.793 873.544 280.725 899.915C350.727 929.956 423.313 953.559 497.584 970.418C517.133 974.772 542.733 980.496 562.947 982.446C565.971 982.736 570.822 980.191 572.687 977.705C581.973 965.326 580.524 954.69 590.197 940.957C602.41 946.465 609.133 953.305 613.94 965.907C621.51 985.75 617.558 996.841 612.053 1016H269.555H218.237H-229.913V784.292V762.886L-93.5742 733.238Z" fill="#B5CFE2"/>
<path d="M-229.913 784.292C-224.374 782.603 -218.821 781.204 -213.131 780.035C-187.115 774.698 -161.485 768.089 -135.319 763.504C-119.724 760.765 -116.609 775.815 -111.436 786.593C-71.8872 845.365 -12.0897 882.729 44.7266 922.536C54.2461 929.205 61.6164 935.003 71.0661 941.397C89.9447 953.239 109.836 964.307 129.577 974.594C148.403 984.382 167.537 993.574 186.948 1002.14C191.03 1003.96 216.18 1014.56 218.237 1016H-229.913V784.292Z" fill="#B5CFE2"/>
<path d="M135.248 0H157.673C144.937 39.3823 131.957 78.6845 118.731 117.904L-94.963 762.268C-92.0687 773.723 -89.9849 777.906 -82.6353 787.485C-28.6317 857.906 45.7735 906.123 121.859 949.763C144.535 962.617 167.838 974.325 191.68 984.85C208.112 992.107 224.74 998.903 241.545 1005.24C247.013 1007.33 265.318 1013.81 269.555 1016H218.237C216.18 1014.56 191.03 1003.96 186.948 1002.14C167.537 993.574 148.403 984.382 129.577 974.594C109.836 964.307 89.9447 953.239 71.0661 941.397C61.6164 935.003 54.2461 929.205 44.7266 922.536C-12.0897 882.729 -71.8872 845.365 -111.436 786.593C-116.609 775.815 -119.724 760.765 -135.319 763.504C-161.485 768.089 -187.115 774.698 -213.131 780.035C-218.821 781.204 -224.374 782.603 -229.913 784.292V762.886C-200.054 753.916 -167.859 748.446 -137.567 740.882C-129.673 738.911 -111.946 742.246 -108.498 733.978C-99.3127 710.585 -89.6899 686.925 -81.1369 663.295C-59.4568 603.401 -40.5382 541.689 -20.9055 481.081L115.12 60.9919C121.567 41.0924 128.133 19.5646 135.248 0Z" fill="#232021"/>
<path d="M442.472 30.0755C456.964 27.9923 487.204 33.7797 500.804 38.5828C650.558 91.4747 795.133 170.508 955.994 183.597C962.94 184.162 971.29 181.634 978.229 182.251C1007.59 184.864 1017.93 219.079 1034.61 238.359C1042.08 246.925 1050.1 252.277 1058.06 261.466C1114.83 327.5 1168.25 412.042 1162.09 502.55C1159.07 547.059 1146.76 600.767 1111.18 631.186C1074 662.98 1036.19 675.104 987.73 671.598C937.176 667.676 886.562 644.205 838.95 628.892C797.139 615.444 756.993 602.979 715.354 588.405C614.141 553.017 514.882 512.238 418.011 466.242C393.29 454.417 354.591 437.413 333.709 421.32C299.74 395.141 268.923 337.509 263.904 295.063C257.795 243.393 281.454 187.761 303.164 141.99C311.227 124.992 317.439 109.098 329.432 94.4378C358.973 58.3261 396.088 35.3682 442.472 30.0755Z" fill="#B5CFE2"/>
<path d="M517.691 158.858C545.267 157.558 571.499 161.857 598.518 166.696C612.916 169.276 625.211 170.612 638.799 176.605C651.844 182.356 665.283 187.866 678.514 193.203C711.536 206.493 744.751 219.276 778.167 231.548L969.129 301.24C989.024 308.71 1008.84 316.362 1028.6 324.196C1051.15 333.134 1068.8 338.49 1085.48 357.316C1100.69 374.47 1122.98 403.219 1129.23 425.348C1153.76 512.085 1114.55 638.592 1007.95 637.008C973.772 636.548 944.264 625.721 911.777 617.731C860.606 605.147 811.322 586.864 761.793 568.759C682.934 540.364 605.309 508.617 529.139 473.602C496.536 458.461 458.407 441.867 430.557 419.416C407.609 400.917 388.951 370.514 386.826 340.677C383.22 290.051 403.525 237.589 435.762 199.017C457.798 172.742 483.916 161.387 517.691 158.858Z" fill="#232021"/>
<path d="M533.811 174.626C546.745 173.521 565.904 174.002 578.31 177.95C585.346 180.189 599.713 190.782 606.258 195.466C657.184 231.889 702.679 275.492 744.869 321.629C748.271 325.351 763.828 341.472 764.86 345.022C771.442 367.624 766.799 398.819 758.924 419.988C744.163 459.684 721.869 485.975 683.765 504.116C666.693 512.244 662.778 509.109 646.746 503.181C577.449 477.719 498.743 445.15 437.418 401.475C421.908 390.429 409.798 354.089 408.125 334.76C404.844 296.839 417.152 250.78 440.843 220.442C463.251 192.74 498.773 177.805 533.811 174.626Z" fill="#FEFBC2"/>
<path d="M489.138 254.001C517.325 261.828 545.749 274.551 573.669 283.745C576.828 285.052 583.147 286.975 583.965 290.926C586.822 304.709 529.975 314.599 525.079 327.441C517.998 346.275 557.636 375.027 550.152 393.701C532.002 391.18 465.845 369.356 456.069 358.833C450.918 347.442 462.147 324.844 466.648 313.138C474.337 293.501 481.835 273.788 489.138 254.001Z" fill="#232021"/>
<path d="M965.638 322.56C967.243 322.685 971.188 325.253 972.555 326.158C1000.35 344.488 1022.57 377.855 1029.13 410.525C1036.29 446.126 1028.29 486.346 1008.05 516.921C989.337 545.175 958.157 572.211 927.134 586.584C924.326 587.887 900.88 592.512 896.749 593.389C863.876 581.398 830.564 571.096 797.245 560.422C768.978 551.078 721.462 534.991 694.903 520.941C749.023 495.084 773.502 438.305 784.319 382.105C786.102 372.836 786.362 366.455 791.213 358.086C804.63 353.344 830.378 347.435 844.419 344.552C884.536 336.315 925.299 330.243 965.638 322.56Z" fill="#FEFBC2"/>
<path d="M839.142 402.709C859.298 401.894 873.373 410.048 892.303 417.309C898.928 420.209 940.065 428.846 939.405 438.369C938.53 451.065 885.168 452.885 876.771 473.086C868.545 492.877 905.335 531.081 899.222 540.82C895.215 541.453 815.579 515.512 805.406 512.296L801.234 499.488C810.121 470.881 820.4 441.963 830.113 413.578C832.423 406.843 832.942 405.741 839.142 402.709Z" fill="#232021"/>
<path d="M231.867 662.757C276.23 679 317.451 700.971 359.506 721.825C346.339 751.958 333.684 783.659 321.054 814.116C320.45 815.039 320.456 814.838 319.443 815.501C314.411 814.347 300.114 808.541 294.665 806.442C259.477 792.896 227.828 776.602 195.274 757.756C199.413 748.467 204.222 734.914 207.971 725.161L231.867 662.757Z" fill="#FEFBC2"/>
<path d="M375.89 729.419C419.484 743.564 461.159 762.85 504.973 773.538C491.117 803.929 481.548 837.282 466.807 869.064C463.712 869.064 436.24 859.12 431.943 857.654C400.893 846.965 369.788 836.433 338.63 826.057C351.463 795.667 364.019 760.617 375.89 729.419Z" fill="#FEFBC2"/>
<path d="M134.968 588.629C141.114 593.915 144.779 608.161 151.98 613.494C172.415 628.626 194.576 639.941 215.894 653.986C204.492 678.387 196.424 707.259 185.701 732.204C183.609 737.073 182.289 741.714 179.763 746.518C177.653 747.285 177.343 746.6 174.769 745.565C148.573 733.097 126.563 714.038 103.333 696.999C98.5413 693.484 93.7154 689.969 89.2342 686.061C91.2987 656.69 112.988 608.745 134.968 588.629Z" fill="#FEFBC2"/>
<path d="M520.767 779.478C552.199 794.803 591.179 804.479 624.884 818.517C612.656 845.64 599.172 877.795 586.097 904.055L585.51 904.777C583.103 905.179 493.068 878.845 483.419 875.942C487.528 867.516 493.097 851.654 496.604 842.514L520.767 779.478Z" fill="#FEFBC2"/>
<path d="M415.213 642.71C453.461 658.472 496.047 677.279 533.846 694.323C533.512 696.5 533.155 698.671 532.754 700.837C529.946 716.024 521.73 729.688 515.987 743.885C514.791 746.84 511.894 755.906 510.017 757.193L507.103 756.263L385.213 709.168C395.282 685.627 399.919 663.519 415.213 642.71Z" fill="#FEFBC2"/>
<path d="M265.288 590.715C310.934 609.827 350.053 610.226 393.081 634.38C384.612 653.617 375.262 680.24 367.523 700.443C363.993 700.219 351.573 695.243 347.547 693.635C321.218 683.151 295.507 671.169 270.543 657.746C260.25 652.255 250.375 646.099 240.135 640.643C249.466 620.811 248.91 606.617 265.288 590.715Z" fill="#FEFBC2"/>
<path d="M330.842 842.887C333.819 843.438 336.897 844.42 339.804 845.276C380.515 857.304 420.113 872.779 459.752 887.881C449.237 904.249 452.99 921.882 438.938 933.374C428.256 936.314 410.277 926.675 399.009 923.393C368.844 914.602 339.913 907.873 311.81 893.203C316.219 879.202 325.472 857.341 330.842 842.887Z" fill="#FEFBC2"/>
<path d="M188.254 776.117C231.826 800.077 268.944 814.896 312.826 835.886C304.894 852.708 303.427 865.294 293.143 881.602L291.569 883.218C287.28 883.545 276.936 878.633 272.469 876.884C235.636 862.444 203.449 846.485 171.849 822.228C177.275 809.262 183.647 789.738 188.254 776.117Z" fill="#FEFBC2"/>
<path d="M554.732 702.307C589.76 716.243 624.498 726.69 654.325 749.169C649.066 761.145 637.863 788.708 631.986 798.987L630.315 799.359L529.117 764.629C536.085 740.72 540.788 722.97 554.732 702.307Z" fill="#FEFBC2"/>
<path d="M475.528 893.917C507.334 906.444 544.941 915.465 578.342 925.03C573.461 937.095 565.363 953.314 559.762 965.506C555.669 967.158 495.945 953.359 489.244 951.505C478.881 948.61 468.637 945.298 458.539 941.583C464.23 925.834 469.538 909.511 475.528 893.917Z" fill="#FEFBC2"/>
<path d="M91.1808 719.334C107.768 723.031 154.716 758.109 171.705 768.529C168.15 781.026 163.668 789.072 157.942 800.587L153.988 810.628C130.694 790.68 109.683 772.958 95.7445 744.569C92.7573 738.488 90.0316 732.91 88.8496 726.124C88.2932 722.933 89.2902 721.973 91.1808 719.334Z" fill="#FEFBC2"/>
<path d="M191.59 581.056C209.224 578.611 225.012 581.557 241.657 586.986C235.351 601.504 229.595 618.039 223.672 632.99L212.665 627.439C190.186 616.223 174.04 607.469 159.31 586.933C171.198 583.987 179.428 582.445 191.59 581.056Z" fill="#FEFBC2"/>
</g>
<defs>
<clipPath id="clip0_68_1227">
<rect width="1024" height="1024" fill="white"/>
</clipPath>
</defs>
</svg>
